<svg width="716" height="154" viewBox="0 0 716 154" fill="none" xmlns="http://www.w3.org/2000/svg">
<g id="logo">
<text id="right" fill="black" xml:space="preserve" style="white-space: pre" font-family="Bentham" font-size="128" letter-spacing="0em"><tspan x="613" y="115.688">/&#62;</tspan></text>
<text id="left" fill="black" xml:space="preserve" style="white-space: pre" font-family="Bentham" font-size="128" letter-spacing="0em"><tspan x="0" y="115.688">&#60;</tspan></text>
<g id="sign">
<path id="Vector 4" d="M127.968 80C127.71 79.9628 127.762 79.7616 127.581 79.5989C127.211 79.2668 126.384 79.4091 125.937 79.3057C124.96 79.0802 123.74 78.3337 122.796 78.3337C120.33 78.3337 117.716 74.9658 116.22 72.9801C113.955 69.9741 111.681 66.6767 110.058 63.1986C109.493 61.9865 108 60.195 108 58.7707C108 57.9376 108 57.1044 108 56.2713C108 55.2477 108.617 54.5748 108.735 53.6177C108.895 52.3273 110.537 51.2502 111.381 50.7017C112.952 49.6822 114.467 49.0929 116.166 48.48C120.485 46.9223 125.068 46.7493 129.545 45.9035C132.204 45.4013 134.946 46.2657 137.591 45.5024C139.701 44.8935 141.839 45.0087 144.007 45.0087C148.284 45.0087 152.561 45.0087 156.838 45.0087C160.523 45.0087 163.909 44.8595 167.477 46.1812C171.282 47.5911 175.018 49.2366 178.837 50.5629C182.67 51.8936 186.937 54.4508 191 54.4508" stroke="black" stroke-width="3" stroke-linecap="round"/>
<path id="Vector 5" d="M162.411 51.844C162.411 54.7611 163.411 57.8068 164.174 60.6291C164.842 63.1019 165.664 65.4911 166.378 67.9342C166.964 69.9383 166.837 71.9356 167.102 73.9798C167.463 76.7647 167.839 79.562 168.236 82.3398C169.462 90.9193 168.929 99.8081 168.929 108.459C168.929 113.879 168.06 119.455 166.945 124.769C166.537 126.715 165.811 128.17 165.811 130.201C165.811 131.589 164.32 133.953 166.583 131.413C171.047 126.404 176.701 122.57 181.461 117.811C183.15 116.122 184.869 114.513 186.64 112.914C188.08 111.615 189.702 110.455 190.687 108.742C192.825 105.024 194.406 101.295 195.662 97.1862C196.766 93.5733 197.412 89.4379 197.992 85.709C198.313 83.6446 198.656 81.6828 199.251 79.6791C199.658 78.3085 200.554 77.0514 200.889 75.7116C201.241 74.304 201.591 72.3246 202.432 71.1144C203.263 69.9167 203.465 68.6433 204.053 67.3202C204.248 66.8812 204.436 66.4123 204.573 65.9505C204.59 65.8912 204.643 65.1189 204.777 65.2262C205.809 66.0514 204.304 70.7879 204.195 71.8072C203.841 75.1192 204.069 78.5387 204.069 81.8675C204.069 87.0105 204.069 92.1535 204.069 97.2964C204.069 105.321 203.786 113.334 203.786 121.337C203.786 122.632 202.995 123.483 202.935 124.675C202.91 125.181 202.935 125.695 202.935 126.202C202.935 126.205 203.473 125.762 203.565 125.683C204.509 124.871 205.229 123.805 205.927 122.786C209.425 117.672 213.394 112.775 216.664 107.514C219.954 102.221 224.131 97.6515 226.96 92.0537C229.262 87.5003 231.686 83.1028 234.612 78.9234C236.636 76.0316 238.71 73.1782 240.752 70.2958C243.168 66.8846 246.275 64.0026 248.687 60.6133C251.923 56.0648 254.626 51.1518 258.07 46.743C259.287 45.1852 260.795 43.8037 262.321 42.5551C264.197 41.02 266.731 40.7509 268.965 39.9416C273.416 38.3289 278.836 37.2269 283.544 37.1078C289.166 36.9654 295.077 36.6951 300.516 38.383C303.566 39.3298 304.93 41.1112 306.089 43.9248C307.099 46.3784 307.92 49.5083 308.356 52.1274" stroke="black" stroke-width="3" stroke-linecap="round"/>
<path id="Vector 7" d="M272.932 92.9354C272.932 91.7003 273.057 90.4486 272.318 89.3773C271.742 88.5416 270.152 86.1341 268.965 86.1341C268.473 86.1341 268.442 85.9085 268.052 85.6932C266.931 85.0748 264.54 85.709 263.36 85.7877C260.836 85.956 257.828 87.3854 255.772 88.842C250.934 92.2687 249.958 97.1203 247.711 102.256C246.03 106.098 245.43 109.921 244.247 113.906C243.456 116.574 242.575 119.314 242.342 122.109C242.251 123.203 242.094 124.165 243.035 124.817C245.655 126.631 250.68 123.921 252.875 122.439C255.774 120.483 258.71 117.58 261.172 115.118C265.059 111.231 267.231 106.203 270.162 101.673C271.617 99.4236 273.958 97.8904 275.357 95.5961C276.319 94.018 277.972 92.2691 278.6 90.5423C279.098 89.1748 280.78 87.5809 281.78 86.4804C282.099 86.1302 282.466 85.2839 282.961 85.2839C283.076 85.2839 282.804 85.4522 282.725 85.5358C282.239 86.0494 281.819 86.6315 281.387 87.1889C280.049 88.9146 278.628 90.6013 277.608 92.5418C274.95 97.6019 272.953 102.455 272.649 108.238C272.53 110.495 271.895 112.795 271.578 115.04C271.331 116.794 271.397 118.653 270.949 120.361C270.79 120.966 269.689 125.388 270.839 125.509C272.722 125.708 273.991 124.873 275.609 124.045C278.411 122.612 281.133 120.919 283.355 118.661C287.652 114.295 289.489 108.323 290.361 102.413C291.012 98.0022 293.336 93.6206 293.336 89.1097C293.336 88.6203 293.507 88.7441 293.494 89.3143C293.432 92.0888 292.799 94.9429 292.423 97.69C291.798 102.271 291.185 107.271 289.81 111.702C289.132 113.885 288.405 116.151 287.543 118.267C287.192 119.129 287.25 120.11 286.819 120.865C286.595 121.256 286.252 122.544 286.252 122.093C286.252 115.766 287.977 110.329 289.747 104.334C290.381 102.187 291.669 100.965 293.179 99.3117C294.511 97.8527 295.302 96.0711 296.721 94.6515C299.666 91.7069 303.079 89.2251 307.097 87.9604C311.025 86.7237 314.359 89.8514 316.134 93.0456C316.704 94.0733 317.22 95.2979 317.834 96.2731C318.242 96.9213 318.412 97.6945 319.125 96.9029C320.795 95.0474 321.258 91.5625 322.463 89.3773C323.053 88.3067 323.492 87.1534 324.163 86.1341C324.347 85.8547 324.471 84.752 324.73 84.6227C324.853 84.5609 324.793 84.894 324.793 85.032C324.793 85.8832 324.731 86.7391 324.619 87.5825C324.302 89.9803 323.829 92.4045 323.36 94.7774C322.5 99.13 321.097 103.401 320.416 107.782C320.071 110.001 319.967 112.254 319.629 114.473C319.266 116.851 318.573 119.109 318.212 121.495C317.924 123.392 317.425 125.354 316.999 127.225C316.645 128.786 316.291 129.679 316.291 127.446C316.291 124.297 315.979 121.331 317.425 118.44C319.494 114.302 321.046 109.935 322.935 105.704C325.298 100.41 328.095 95.483 332.098 91.2981C334.076 89.2301 336.043 87.551 339.088 87.551C339.944 87.551 340.883 87.4529 341.733 87.551C342.272 87.6133 343.13 90.3707 343.276 91.0147C343.826 93.4343 344.913 96.1237 344.913 98.6032" stroke="black" stroke-width="3" stroke-linecap="round"/>
<path id="Vector 8" d="M356.669 84.271C356.569 83.3721 354.246 82.1552 353.582 81.4905C352.199 80.1074 350.765 78.2542 350.068 76.4412C348.68 72.8342 348.379 69.8496 348.379 65.9843C348.379 63.1549 348.254 61.0753 349.437 58.4956C351.215 54.6147 355.956 52.7182 359.757 51.5869C366.438 49.5984 373.149 48.1776 380.04 47.1176C386.264 46.1599 392.367 44.9682 398.685 44.9682C402.289 44.9682 405.781 44.2041 409.38 44.4906C412.334 44.7257 415.29 45.3634 418.217 45.5652C424.123 45.9726 430.204 46.9336 436.043 47.9193C443.665 49.2062 451.586 54.2298 457.246 59.3144C467.665 68.6736 475.192 80.6928 475.192 95.0179C475.192 99.1597 473.484 101.985 471.183 105.321C469.766 107.376 468.101 109.144 466.356 110.916C464.579 112.721 463.327 114.835 461.375 116.495C459.278 118.277 457.468 120.295 455.404 122.107C453.333 123.925 450.72 124.862 448.137 125.723C444.914 126.798 441.618 127.87 438.209 128.111C433.422 128.451 428.016 128.679 423.3 127.821C419.268 127.088 415.321 126.438 411.564 124.768C407.599 123.006 403.601 121.458 399.589 119.821C393.318 117.263 387.506 113.861 380.824 112.349C379.411 112.03 377.946 112.094 376.508 111.769C374.684 111.357 372.939 110.763 371.101 110.371C367.054 109.507 363.224 107.964 359.126 107.368C357.263 107.097 354.748 107.059 352.968 107.675C349.288 108.949 349.129 111.687 349.368 115.147C349.877 122.503 354.545 132.534 362.879 133.638C365.24 133.951 368.049 134.436 370.316 133.519C373.2 132.353 375.372 130.367 377.651 128.316C381.378 124.962 385.251 121.733 388.603 117.979C393.667 112.307 396.597 105.003 400.203 98.3614C404.976 89.5676 410.747 81.3234 416.067 72.8418C421.407 64.329 427.903 55.8684 431.215 46.2646C431.675 44.93 431.811 43.4702 432.443 42.2047C433.744 39.6043 436.803 39.9796 439.267 39.6801C443.929 39.1131 448.172 40.0819 452.061 42.8871C453.641 44.0269 454.457 45.5114 455.694 46.964C456.41 47.805 457.076 48.443 457.076 49.574" stroke="black" stroke-width="3" stroke-linecap="round"/>
<path id="Vector 9" d="M485.632 104.844C485.796 103.531 491.659 103.603 492.694 103.479C495.582 103.132 498.639 102.625 501.462 101.91C502.541 101.636 503.258 101.217 504.362 101.159C505.98 101.074 505.606 98.0364 505.744 97.0137C505.954 95.4506 508.092 87.3694 505.351 86.4886C504.078 86.0792 502.241 86.4204 500.916 86.4204C496.855 86.4204 493.61 86.5649 490.22 89.0815C487.83 90.8564 483.572 92.8939 482.084 95.5467C480.578 98.2297 478.968 100.679 477.955 103.615C476.108 108.974 475.192 114.767 475.192 120.452C475.192 124.096 475.479 126.777 479.252 127.873C483.133 128.999 487.883 129.171 491.227 126.747C503.829 117.61 513.285 105.005 521.489 92.0156C522.36 90.6354 523.01 87.8659 524.32 86.8639C524.723 86.5561 524.594 89.2934 524.593 89.3033C524.447 91.8697 523.815 94.2731 523.092 96.7237C522.162 99.8747 521.567 103.118 520.619 106.259C519.749 109.14 519.101 111.609 519.101 114.601C519.101 116.298 518.208 120.685 520.022 121.851C522.855 123.672 525.761 122.133 527.937 119.957C530.816 117.078 532.958 113.7 534.658 110.029C536.456 106.147 538.867 102.129 540.134 98.0372C540.855 95.707 541.543 93.3416 542.727 91.1968C543.185 90.3654 543.991 89.4327 544.279 88.5698" stroke="black" stroke-width="3" stroke-linecap="round"/>
</g>
</g>
</svg>
